External Loads File
version=1
nRows=46
nColumns=13
Range=5.000000e-03-10 seconds
endheader
time 	forceRightX 	forceRightY 	forceRightZ 	pointRightX 	pointRightY 	pointRightZ 	forceLeftX 	forceLeftY 	forceLeftZ 	pointLeftX 	pointLeftY 	pointLeftZ 		
2.505000 -66.585590 39.171806 -0.000000 0.276271 0.497067 -0.168656 122.221405 211.675712 -0.000000 0.244260 0.135002 -0.413057
2.510000 -67.106255 65.873690 -0.000000 0.282395 0.496996 -0.168492 118.232424 164.046222 -0.000000 0.236608 0.135637 -0.413275
2.515000 -67.240759 97.553184 -0.000000 0.288089 0.496632 -0.168327 113.033761 121.683332 -0.000000 0.229030 0.136570 -0.413433
2.520000 -67.394519 135.120460 -0.000000 0.293551 0.495924 -0.167970 107.325744 84.838724 -0.000000 0.221713 0.137876 -0.413431
2.525000 -68.089647 179.169003 -0.000000 0.298652 0.494565 -0.167488 101.689331 53.256042 -0.000000 0.214606 0.139607 -0.413447
2.530000 -69.675739 229.740017 -0.000000 0.303667 0.492968 -0.167068 96.534179 26.215297 -0.000000 0.207521 0.141737 -0.413485
2.535000 -72.566358 286.003038 -0.000000 0.308615 0.490840 -0.166694 91.932710 2.951766 -0.000000 0.200499 0.144163 -0.413446
2.540000 -77.267896 346.302535 -0.000000 0.313458 0.488130 -0.166256 87.762374 -17.235640 -0.000000 0.193761 0.147150 -0.413320
2.545000 -83.992027 408.426047 -0.000000 0.318310 0.484981 -0.165948 83.776399 -35.012983 -0.000000 0.187226 0.150544 -0.413126
2.550000 -92.772710 469.838397 -0.000000 0.323202 0.481257 -0.165823 79.670149 -50.904704 -0.000000 0.180899 0.154459 -0.413042
2.555000 -103.842162 527.935125 -0.000000 0.328053 0.477124 -0.165816 75.212927 -65.211788 -0.000000 0.174874 0.158966 -0.412605
2.560000 -116.937408 580.468821 -0.000000 0.332898 0.472448 -0.165810 70.234403 -78.116103 -0.000000 0.169094 0.163893 -0.411995
2.565000 -131.843101 625.661753 -0.000000 0.337770 0.467338 -0.165625 64.709531 -89.588792 -0.000000 0.163508 0.169059 -0.411450
2.570000 -148.222335 662.385317 -0.000000 0.342734 0.461775 -0.165441 58.739485 -99.463991 -0.000000 0.158162 0.174383 -0.410943
2.575000 -165.397942 690.256840 -0.000000 0.347845 0.455985 -0.165294 52.500975 -107.526337 -0.000000 0.152902 0.180022 -0.410872
2.580000 -182.509692 709.564106 -0.000000 0.353106 0.449352 -0.165021 46.246432 -113.555240 -0.000000 0.147953 0.185878 -0.410775
2.585000 -199.732001 720.848445 -0.000000 0.358187 0.442512 -0.164845 40.469514 -117.288257 -0.000000 0.143301 0.192238 -0.410550
2.590000 -216.090582 725.352870 -0.000000 0.363304 0.435518 -0.164880 35.509707 -118.597543 -0.000000 0.138793 0.198904 -0.410427
2.595000 -231.642876 724.342431 -0.000000 0.368144 0.428203 -0.164800 31.846762 -117.408913 -0.000000 0.134561 0.205820 -0.410451
2.600000 -245.422752 719.590438 -0.000000 0.372978 0.420544 -0.164759 29.724936 -113.890143 -0.000000 0.130523 0.212948 -0.410390
2.605000 -257.164535 712.734816 -0.000000 0.377774 0.412655 -0.164814 29.403324 -108.396971 -0.000000 0.126703 0.220466 -0.410263
2.610000 -267.646685 704.926698 -0.000000 0.382034 0.404469 -0.164625 31.150402 -101.408154 -0.000000 0.123186 0.228198 -0.410249
2.615000 -276.170631 697.625825 -0.000000 0.386154 0.396078 -0.164232 34.813289 -93.523400 -0.000000 0.119916 0.236127 -0.410366
2.620000 -283.129086 691.630852 -0.000000 0.389836 0.387495 -0.164471 40.194912 -85.267598 -0.000000 0.117143 0.244271 -0.410739
2.625000 -288.234936 687.772422 -0.000000 0.393129 0.378761 -0.164332 46.843293 -77.130990 -0.000000 0.114539 0.252515 -0.410693
2.630000 -291.528722 686.564580 -0.000000 0.395937 0.369816 -0.164216 54.264921 -69.520285 -0.000000 0.112430 0.260942 -0.410784
2.635000 -293.094927 688.328778 -0.000000 0.398339 0.360807 -0.164092 61.944431 -62.774909 -0.000000 0.110628 0.269523 -0.410831
2.640000 -292.694640 693.340058 -0.000000 0.400307 0.351606 -0.163943 69.336680 -57.183946 -0.000000 0.109444 0.278322 -0.410778
2.645000 -289.911473 701.743890 -0.000000 0.401868 0.342087 -0.163772 75.892407 -52.947415 -0.000000 0.108583 0.287251 -0.410697
2.650000 -286.118142 712.742583 -0.000000 0.402954 0.332843 -0.163577 81.235418 -49.930003 -0.000000 0.108198 0.296304 -0.410537
2.655000 -280.105803 726.411894 -0.000000 0.403585 0.323386 -0.163303 84.923674 -48.163352 -0.000000 0.108275 0.305399 -0.410449
2.660000 -272.080711 742.049801 -0.000000 0.403799 0.313946 -0.162951 86.827932 -47.495084 -0.000000 0.108854 0.314569 -0.410323
2.665000 -262.046172 758.880590 -0.000000 0.403570 0.304595 -0.162359 87.023418 -47.823522 -0.000000 0.109916 0.323778 -0.410284
2.670000 -249.382959 776.225468 -0.000000 0.402757 0.295113 -0.162248 85.749772 -49.168816 -0.000000 0.111520 0.332909 -0.410133
2.675000 -234.565717 792.981138 -0.000000 0.401642 0.285778 -0.161666 83.461781 -51.487678 -0.000000 0.113602 0.342011 -0.410098
2.680000 -215.188191 808.888476 -0.000000 0.399825 0.276071 -0.161654 80.472061 -55.106886 -0.000000 0.116143 0.351334 -0.410017
2.685000 -196.557048 821.656053 -0.000000 0.397736 0.266773 -0.161265 77.550800 -59.640912 -0.000000 0.119158 0.359774 -0.410016
2.690000 -175.248419 831.541294 -0.000000 0.395166 0.257730 -0.160893 74.719336 -65.626391 -0.000000 0.122640 0.368404 -0.410069
2.695000 -152.700023 837.666646 -0.000000 0.392202 0.249006 -0.160604 72.084262 -73.091055 -0.000000 0.126687 0.376800 -0.410240
2.700000 -128.444365 839.804516 -0.000000 0.388715 0.240474 -0.160420 69.330729 -82.142748 -0.000000 0.131077 0.385165 -0.410771
2.705000 -104.338551 837.612325 -0.000000 0.385002 0.232194 -0.160373 66.146541 -92.532888 -0.000000 0.135933 0.393129 -0.410517
2.710000 -79.997307 831.371267 -0.000000 0.380879 0.224011 -0.160359 61.923374 -104.001954 -0.000000 0.141016 0.400937 -0.410487
2.715000 -55.290007 821.449079 -0.000000 0.376322 0.215970 -0.160324 56.104334 -116.061480 -0.000000 0.146743 0.408605 -0.410164
2.720000 -32.046045 808.232817 -0.000000 0.371404 0.208270 -0.160531 48.597292 -127.945874 -0.000000 0.152959 0.415776 -0.410543
2.725000 -11.902169 792.371614 -0.000000 0.366210 0.201096 -0.160554 39.642518 -138.911258 -0.000000 0.158782 0.422827 -0.410658
2.730000 8.031692 774.605653 -0.000000 0.360681 0.194155 -0.160479 28.983283 -148.536213 -0.000000 0.165390 0.429765 -0.411008
